<svg xmlns="http://www.w3.org/2000/svg" viewBox="0 0 192 192"><defs><style>.cls-1{fill:#009acc;}.cls-2{fill:#fff;}</style></defs><title>アセット 2</title><g id="レイヤー_2" data-name="レイヤー 2"><g id="レイヤー_1-2" data-name="レイヤー 1"><circle class="cls-1" cx="96" cy="96" r="96"/><polygon class="cls-2" points="44 180.6 68.33 161.57 44 161.57 44 180.6"/><polygon class="cls-2" points="68.33 161.57 92.67 142.55 68.33 142.55 68.33 161.57"/><polygon class="cls-2" points="92.67 142.55 117 123.52 92.67 123.52 92.67 142.55"/><polygon class="cls-2" points="117 123.52 141.33 104.5 117 104.5 117 123.52"/><polygon class="cls-2" points="141.33 104.5 165.67 85.47 141.33 85.47 141.33 104.5"/><polygon class="cls-2" points="165.67 66.44 165.67 85.47 190 66.44 165.67 66.44"/><ellipse class="cls-2" cx="109.51" cy="38.36" rx="8.38" ry="8.57"/><rect class="cls-2" x="98.65" y="49.15" width="22.02" height="36.5"/><polygon class="cls-2" points="83.33 62.57 98.97 58.74 98.97 49.15 83.33 52.99 83.33 62.57"/><polygon class="cls-2" points="83.33 52.99 80.23 75.5 85.85 75.5 92.7 52.99 83.33 52.99"/><rect class="cls-2" x="115.09" y="76.76" width="11.48" height="8.89" transform="translate(241.67 162.41) rotate(-180)"/><polygon class="cls-2" points="129.81 73.59 137.43 104.38 129.16 104.38 116.03 73.59 129.81 73.59"/><polygon class="cls-2" points="98.66 84.7 92.45 123.82 99.34 123.82 110.13 84.7 98.66 84.7"/><polygon class="cls-2" points="135.88 45.98 120.37 49.15 120.37 57.09 135.88 53.91 135.88 45.98"/><polygon class="cls-2" points="135.88 50.74 135.88 32.65 131.22 32.65 128.12 50.74 135.88 50.74"/></g></g></svg>