<svg xmlns="http://www.w3.org/2000/svg" viewBox="0 0 192 192"><defs><style>.cls-1{fill:#009acc;}.cls-2{fill:#fff;}</style></defs><title>アセット 4</title><g id="レイヤー_2" data-name="レイヤー 2"><g id="レイヤー_1-2" data-name="レイヤー 1"><circle class="cls-1" cx="96" cy="96" r="96"/><path class="cls-2" d="M96,67.63c-1.59,0-3.19.07-4.78,0a3,3,0,0,1-3.12-3A10.91,10.91,0,0,0,85,57.68c-5.36-5.9-5.47-14.9-.42-20.39a15.21,15.21,0,1,1,22.34,20.62,9.85,9.85,0,0,0-3,6.49,3.2,3.2,0,0,1-3.43,3.26c-1.48,0-3,0-4.44,0Zm.06-2c1.25,0,2.5,0,3.75,0s2-.47,2.08-1.84a11.57,11.57,0,0,1,3.54-7.53,13,13,0,0,0-.2-18.28A13.08,13.08,0,0,0,86.39,56.08a12.23,12.23,0,0,1,3.72,7.82A1.61,1.61,0,0,0,92,65.61C93.35,65.59,94.71,65.61,96.08,65.61Z"/><path class="cls-2" d="M96.19,68.9c1.47,0,3-.07,4.41,0,.47,0,.9.59,1.34.91-.42.36-.84,1-1.27,1-3.11.09-6.23.08-9.34,0-.42,0-.82-.67-1.23-1,.45-.33.87-.9,1.34-.93,1.57-.12,3.17,0,4.75,0Z"/><path class="cls-2" d="M116.87,25c.28.21.76.37.85.67a1.49,1.49,0,0,1-.13,1.25c-1.72,1.82-3.48,3.6-5.31,5.3a1.63,1.63,0,0,1-1.5,0,1.33,1.33,0,0,1-.15-1.3c1.78-1.9,3.66-3.73,5.52-5.57A2.82,2.82,0,0,1,116.87,25Z"/><path class="cls-2" d="M81.64,31.55c-.17.25-.32.72-.61.83a1.45,1.45,0,0,1-1.25-.08c-1.86-1.76-3.68-3.56-5.43-5.43a1.41,1.41,0,0,1,.06-1.36,1.41,1.41,0,0,1,1.34-.2c1.94,1.83,3.81,3.74,5.69,5.63C81.54,31.05,81.55,31.26,81.64,31.55Z"/><path class="cls-2" d="M70.18,48.12a25.52,25.52,0,0,1-3.39,0c-.47-.07-.86-.68-1.29-1,.4-.37.79-1,1.22-1.06,2.37-.11,4.76-.12,7.13,0,.44,0,.85.67,1.27,1-.46.39-.87,1-1.37,1.12a25,25,0,0,1-3.57.05Z"/><path class="cls-2" d="M121.71,48.12a28.15,28.15,0,0,1-3.56,0c-.46-.06-.85-.68-1.27-1,.4-.37.78-1,1.2-1.06,2.37-.1,4.76-.11,7.13,0,.44,0,.86.66,1.29,1-.46.38-.89,1-1.4,1.11a22.53,22.53,0,0,1-3.39.05Z"/><path class="cls-2" d="M94.83,21.25A18.07,18.07,0,0,1,94.89,18c.1-.57.75-1,1.15-1.54.38.48,1.06.95,1.08,1.45a63.89,63.89,0,0,1,0,6.78c0,.5-.7,1-1.08,1.44-.4-.51-1-1-1.15-1.53A21.25,21.25,0,0,1,94.83,21.25Z"/><path class="cls-2" d="M95.87,73.86a26,26,0,0,1-3.06,0c-.36,0-.93-.6-.92-.91a1.37,1.37,0,0,1,.88-1c2.09-.09,4.2-.11,6.3,0,.37,0,.72.68,1.08,1-.4.31-.78.83-1.22.89a24,24,0,0,1-3.06,0Z"/><path class="cls-2" d="M96,77.3a4.64,4.64,0,0,1-1.67,0A5.81,5.81,0,0,1,93,76.05c.46-.48.85-1.26,1.39-1.38a7.58,7.58,0,0,1,3.18,0c.6.14,1,.92,1.55,1.42a8.43,8.43,0,0,1-1.55,1.21A3.8,3.8,0,0,1,96,77.3Z"/><path class="cls-2" d="M85,46.06c.17-5.06,4.73-9.54,9.21-9.43.5,0,1,.64,1.47,1-.43.35-.82.91-1.29,1-4.58.85-6.54,2.84-7.36,7.46-.08.45-.71.8-1.08,1.19Z"/><path class="cls-2" d="M80.12,162.78,56.28,142l2.6-3.35A52.17,52.17,0,0,0,63.81,141c3.92,1.37,6.69.14,8.69-3.45a2.7,2.7,0,0,1,1.9-1.19c4.76-.08,7.34-2.71,6.87-7.48a2.92,2.92,0,0,1,1.49-3.24c2.28-1.51,2.89-4.21,1.92-7.09-.3-.89-.72-1.74-1.07-2.57,5.22-5.28,5.23-6.4.24-14,0-.12,0-.3.11-.35,9.52-6.71,19.29-12.9,31.06-14.87a14.8,14.8,0,0,1,3-.28,4.65,4.65,0,0,1,4.87,4c.54,2.5-.45,4.35-2.81,5.66s-4.56,2.72-6.84,4.09l.29.71a4.09,4.09,0,0,0,1.4,0c2-.8,4-1.58,6-2.56,1.44-.74,2.75-1.19,4.1,0a4.23,4.23,0,0,1,1.46,4.57,8.55,8.55,0,0,1-1.47,2.61c-1.4,1.83-2.93,3.56-4.34,5.38a14.87,14.87,0,0,0-1.17,2.2l.63.55,6-5.41c2.07,1,3.27,2.81,2.54,5.21a46.73,46.73,0,0,1-3.55,7.88,39.37,39.37,0,0,1-2.94,4.26l.65.58,5.93-5.68c.5,1.32,1.42,2.55,1.31,3.66-.75,7.44-2.9,14.2-9.78,18.46-7,4.35-14.42,8-22.67,9.13-6.95,1-12,4.59-16.22,9.85a11.69,11.69,0,0,1-.81.91S80.48,162.61,80.12,162.78Z"/><path class="cls-2" d="M51,140.93a14.94,14.94,0,0,1,1.45,1q14,12.2,28.08,24.4c1.13,1,1.37,1.89.27,3.08-1.6,1.75-3.14,3.56-4.67,5.37-1,1.14-1.89,1-3,.1Q59.11,162.57,45,150.29c-1-.88-1.17-1.75-.26-2.78,1.61-1.83,3.19-3.68,4.83-5.49A8.85,8.85,0,0,1,51,140.93Z"/><path class="cls-2" d="M117.23,175.81a8,8,0,0,1-1.32-1c-1.63-1.81-3.2-3.69-4.83-5.5-1-1.12-.77-2,.28-2.94q14.13-12.26,28.23-24.55a1.71,1.71,0,0,1,2.79.14l5,5.66c.84,1,.64,1.8-.3,2.62l-28.36,24.7A10.47,10.47,0,0,1,117.23,175.81Z"/><path class="cls-2" d="M129.4,136.57l6,5.68-23.49,20.46c-3.39-4.87-9.06-5.54-14.05-8.09C110,150.83,122.12,147.64,129.4,136.57Z"/><path class="cls-2" d="M98.47,89.36c-4.82,3-9.34,5.94-14,8.71a10.56,10.56,0,0,1-7.83,1.33c-2.32-.49-2.85-1.91-1.2-3.58,3.28-3.31,6.61-6.59,10.12-9.65,2.59-2.25,5.2-2.23,8-.37C95.26,86.86,96.76,88.09,98.47,89.36Z"/><path class="cls-2" d="M66.55,106c3.3,4.9,8.09,7.63,13.21,9.9a5.9,5.9,0,0,1,2.75,6.17c-.67,2-2.79,3-5.39,2.18A22.75,22.75,0,0,1,63.94,114.1C61.92,110.78,63,107.52,66.55,106Z"/><path class="cls-2" d="M72.22,96.06c0,4.25,1.47,5.73,5.92,6,3.13.15,7.12,4.63,6.91,7.74a3.86,3.86,0,0,1-5.63,3.41,48.07,48.07,0,0,1-8-5.18,12,12,0,0,1-3.28-5C67,99.69,68.56,97.13,72.22,96.06Z"/><path class="cls-2" d="M61.63,115.65c1.94,2.06,3.53,4.36,5.68,5.88a39.76,39.76,0,0,0,9.23,4.92c2,.75,2.48,1.75,2.4,3.51-.08,2.11-1.17,3.69-3,3.81a9.7,9.7,0,0,1-4.16-.54,21.65,21.65,0,0,1-9.92-7.84C59.63,122,59.52,118.61,61.63,115.65Z"/><path class="cls-2" d="M70.31,136c-.73,2.57-2.41,3.62-5.28,2.87a9.52,9.52,0,0,1-6.54-5,6.36,6.36,0,0,1,.7-6.91Z"/></g></g></svg>