<svg xmlns="http://www.w3.org/2000/svg" viewBox="0 0 192 192"><defs><style>.cls-1{fill:#009acc;}.cls-2{fill:#fff;}.cls-3{fill:none;stroke:#009acc;stroke-miterlimit:10;}</style></defs><title>アセット 6</title><g id="レイヤー_2" data-name="レイヤー 2"><g id="レイヤー_1-2" data-name="レイヤー 1"><circle class="cls-1" cx="96" cy="96" r="96"/><path class="cls-2" d="M60.08,106.59a22.24,22.24,0,0,0-16.48,0c-5.79,2.08-11.63,4.46-14.79,1.64h0c-3.24-2.7-.24-13.27,9.8-17.27a35.79,35.79,0,0,1,26.46,0c10,4,13,14.57,9.8,17.27h0C71.71,111.05,65.87,108.67,60.08,106.59Z"/><path class="cls-2" d="M71.45,131.39a41.55,41.55,0,0,0,23.39,0c8.21-2.21,16.48-4.74,21-1.73h0c4.59,2.86.35,14.1-13.89,18.34a66.56,66.56,0,0,1-37.53,0c-14.23-4.24-18.49-15.48-13.89-18.34h0C55,126.65,63.24,129.18,71.45,131.39Z"/><path class="cls-2" d="M120,106.59a22.27,22.27,0,0,0-16.49,0c-5.79,2.08-11.62,4.46-14.78,1.64h0C85.45,105.53,88.45,95,98.48,91A35.82,35.82,0,0,1,125,91c10,4,13,14.57,9.79,17.27h0C131.59,111.05,125.75,108.67,120,106.59Z"/><circle class="cls-1" cx="52.01" cy="96.96" r="7.7"/><circle class="cls-1" cx="111.89" cy="96.96" r="7.7"/><line class="cls-3" x1="61.87" y1="118.87" x2="46.61" y2="149.39"/><line class="cls-3" x1="105.29" y1="118.67" x2="120.55" y2="149.2"/><line class="cls-3" x1="94.65" y1="124.98" x2="103.98" y2="157.8"/><line class="cls-3" x1="71.1" y1="125.74" x2="63.05" y2="158.9"/><line class="cls-3" x1="83.08" y1="126.37" x2="83.21" y2="160.49"/><ellipse class="cls-2" cx="140.48" cy="56.09" rx="22.66" ry="27.09"/><ellipse class="cls-2" cx="160.18" cy="81.17" rx="12.82" ry="14.45"/></g></g></svg>