<svg xmlns="http://www.w3.org/2000/svg" viewBox="0 0 192 192"><defs><style>.cls-1{fill:#009acc;}.cls-2{fill:#fff;}</style></defs><title>アセット 3</title><g id="レイヤー_2" data-name="レイヤー 2"><g id="レイヤー_1-2" data-name="レイヤー 1"><circle class="cls-1" cx="96" cy="96" r="96"/><path class="cls-2" d="M113.11,104.85v.05h6.54c1.73,0,2.13.71,1.28,2.21-1,1.66-1.7,3.39-1.26,5.37.63,2.79,2.1,5,5,5.74a7.27,7.27,0,0,0,8.8-9.85c-1.44-3.45-1.42-3.47,2.44-3.48,3.37,0,6.73,0,10.1,0s4.13-.73,4.22-4.24,0-6.93,0-10.4c0-3.77.05-3.78,3.4-2.4a7.42,7.42,0,0,0,8.84-2.16c2.28-3.16,2.19-6.32-.27-9.24a7,7,0,0,0-8.91-1.35c-2.4,1.42-3,.49-3-1.75,0-3.76,0-7.53-.05-11.29-.07-3.32-.89-4.17-4.24-4.4-1.78-.12-3.57-.08-5.35-.08-4.49,0-4.49,0-4.57,4.39-.08,4.53-2.65,8-6.73,9a9.19,9.19,0,0,1-10.81-4.69,9.62,9.62,0,0,1-.87-6.06c.21-1.8-.46-2.61-2.26-2.58-2.87,0-5.74,0-8.61.11A3.13,3.13,0,0,0,103.4,61c-.05,3.06,0,6.13,0,9.2,0,1.45.49,2.29,2.16,1.87a9.29,9.29,0,0,1,11.37,9c0,5.82-4.43,9.82-10.77,9.39-2-.13-2.78.54-2.77,2.44,0,2.77,0,5.54,0,8.31,0,2.44,1.39,3.59,3.78,3.6ZM103.31,117h0c0,2.18,0,4.36,0,6.54,0,1.87-.55,2.54-2.5,1.32-3.48-2.16-6.88-1.6-9.34,1.22a7.07,7.07,0,0,0-.42,9c2.31,3.13,5.71,4,9.47,1.95,2.36-1.25,2.8-.26,2.82,1.77,0,3.86,0,7.72,0,11.58,0,2.7,1.22,4,4,3.92,3.76-.08,7.52,0,11.28,0,2.15,0,3.29.44,1.88,2.94-1.9,3.36-1,6.83,1.94,9.27a7.26,7.26,0,0,0,8.81,0,7.1,7.1,0,0,0,1.91-9.05c-1.27-2.61-1-3.07,1.89-3.13,3.76-.08,7.52-.1,11.28,0,2.79.06,4-1.23,3.92-3.94-.05-2.18-.11-4.37,0-6.53.2-2.81-.47-4-3.76-3.84-6.77.4-11.28-5.76-9.27-12.15,1.27-4,4.77-6.47,9.67-6.21,2.73.14,3.51-.85,3.35-3.38s0-5.14-.09-7.71a2.83,2.83,0,0,0-3.14-3.13c-2.18,0-4.36,0-6.53,0-4.54,0-4.56-.07-4.5,4.26a9.07,9.07,0,0,1-12.38,8.59c-4.21-1.52-6.33-4.71-6-9.76.15-2.45-.72-3.2-3-3.11s-4.75,0-7.12,0c-3.44.08-4.07.74-4.15,4.27C103.27,113.43,103.31,115.21,103.31,117Zm-49.37,0h0v5.94c0,2.21-.74,2.93-2.89,1.65a6.56,6.56,0,0,0-7.55.24,7.32,7.32,0,0,0-2.38,9.47c2.07,3.68,5.77,4.85,9.68,3.05,2.72-1.25,3.06-1.05,3.14,2.09.05,2,0,4,0,5.94,0,9.19-.66,9,8.84,9,4.94,0,4.89,0,5.41-5.17a8.27,8.27,0,0,1,5.47-7.45c3.72-1.42,7.19-1.14,10.18,1.75a9.08,9.08,0,0,1,2.77,8.11c-.24,1.93.5,2.78,2.43,2.75,2.68-.05,5.35,0,8,0s3.76-1.4,3.78-3.89-.09-4.76.06-7.13c.16-2.59-.73-3.43-3.42-3.23-4.75.36-8.44-2.23-9.67-6.24-2-6.69,2.59-12.5,9.89-12.14,2.36.11,3.3-.51,3.19-2.88s0-5,0-7.43c0-2.68-1.28-4-4-4-3.76,0-7.52,0-11.29,0-2.3,0-3.1-.62-1.89-3,1.88-3.71,1.12-6.84-1.89-9.24a7.17,7.17,0,0,0-9,.27,6.77,6.77,0,0,0-1.61,9.08c1.38,2.51.34,2.9-1.85,2.9-3.77,0-7.53,0-11.29,0-2.68,0-4.06,1.19-4,4C54,113.22,53.94,115.1,53.94,117ZM90.27,63.27c3.77.1,6.67-1.7,7.73-4.8a7.26,7.26,0,0,0-2.9-8.35c-3.23-2.32-6.32-1.87-9.67,1.68-1.55,1.64-2.36,1.77-3.21-.52-1.28-3.43-2.74-6.79-4.13-10.18s-2.56-3.91-6-2.65c-3.26,1.18-6.45,2.56-9.68,3.8-3,1.15-3.17,1-3.14-2.17,0-4.07-1.94-7-5.4-7.89a7.68,7.68,0,0,0-8.09,3.69C44.2,38.76,45,42.43,47.71,45c2.06,2,1.94,2.39-.77,3.44-3.51,1.35-7,2.81-10.51,4.11-2.34.86-3.06,2.38-2.24,4.64.9,2.51,2,5,2.83,7.5.7,2.06,1.56,2.61,3.67,1.44a9.64,9.64,0,0,1,11.07,1.32A9.33,9.33,0,0,1,48,83.19c-2.67.82-3,2-1.94,4.27,1,2.05,1.79,4.19,2.6,6.31,1,2.66,2.81,3.43,5.41,2.38S59.18,94,61.77,93c1.57-.6,1.47-1.31.76-2.68-3-5.74-1-11.68,4.54-13.85s10.59.74,12.47,6.94c.49,1.61,1.12,2.17,2.73,1.49,2.65-1.12,5.33-2.17,8-3.25,2.21-.9,3-2.37,2.06-4.71-1.43-3.48-2.75-7-4.16-10.49C87,63.57,87.24,63.18,90.27,63.27Z"/></g></g></svg>