<svg xmlns="http://www.w3.org/2000/svg" viewBox="0 0 192 192"><defs><style>.cls-1{fill:#009acc;}.cls-2{fill:#fff;}</style></defs><title>アセット 1</title><g id="レイヤー_2" data-name="レイヤー 2"><g id="レイヤー_1-2" data-name="レイヤー 1"><circle class="cls-1" cx="96" cy="96" r="96"/><rect class="cls-2" x="93.08" y="21.79" width="2.79" height="30.7" rx="1.22" ry="1.22" transform="translate(0.26 -0.65) rotate(0.39)"/><path class="cls-2" d="M120.4,30.49,98.88,24.06a1.27,1.27,0,0,0-1.63,1.21l-.09,12.56a1.27,1.27,0,0,0,1.62,1.23l21.61-6.13A1.27,1.27,0,0,0,120.4,30.49Z"/><path class="cls-2" d="M139.69,151.27,93.37,51a.48.48,0,0,0-.86,0L32.88,143.15a.55.55,0,0,0,.38.82l106,8.09A.54.54,0,0,0,139.69,151.27Z"/><path class="cls-2" d="M96.22,52.52l45.21,97.93a.24.24,0,0,0,.45,0l17.3-15.89a.29.29,0,0,0,0-.24L96.63,52.23C96.45,52,96.07,52.22,96.22,52.52Z"/><path class="cls-1" d="M66.08,110.38s11.54,9.61,38-3.67L60.74,145.82Z"/></g></g></svg>